<svg viewBox="0 0 1080 1080" fill="none" xmlns="http://www.w3.org/2000/svg">      <defs>  <filter id="filter" x="-20%" y="-20%" width="140%" height="140%" filterUnits="objectBoundingBox" primitiveUnits="userSpaceOnUse" color-interpolation-filters="linearRGB">    <feMorphology operator="dilate" radius="20 20" in="SourceAlpha" result="morphology"/>    <feFlood flood-color="#ffffff" flood-opacity="1" result="flood"/>    <feComposite in="flood" in2="morphology" operator="in" result="composite"/>    <feMerge result="merge">          <feMergeNode in="composite" result="mergeNode"/>      <feMergeNode in="SourceGraphic" result="mergeNode1"/>      </feMerge>  </filter></defs>      <g id="notion-avatar" filter="url(#filter)">        <g id="notion-avatar-face" fill="#ffffff">      <!--?xml version="1.0" encoding="UTF-8"?-->    <title>Face/ 3</title>    <g id="Face/-3" stroke="none" stroke-width="1" fill-rule="evenodd" stroke-linecap="round" stroke-linejoin="round">        <path d="M532,379 C664.54834,379 772,486.45166 772,619 C772,751.54834 704.54834,899 532,899 C402.610491,899 332.317998,816.086314 305.249034,718.717925 C264.225797,715.291578 232,680.909158 232,639 C232,599.134956 261.158843,566.080325 299.312086,560.00055 C325.599297,455.979213 419.809919,379 532,379 Z M295.858895,624.545187 L304.141105,655.454813" id="Path" stroke="#000000" stroke-width="24"/>    </g>    </g><g id="notion-avatar-nose">      <!--?xml version="1.0" encoding="UTF-8"?-->    <title>Nose/ 10</title>    <g id="Nose/-10" stroke="none" stroke-width="1" fill="none" fill-rule="evenodd" stroke-linecap="round" stroke-linejoin="round">        <path d="M631,694.380659 C660.333333,687.46022 678,677.333333 684,664 C693,644 637.033407,606.392531 660.161467,579" id="Path" stroke="#000000" stroke-width="16"/>    </g>    </g><g id="notion-avatar-mouth">      <g id="Mouth/ 11"><path id="Path" fill-rule="evenodd" clip-rule="evenodd" d="M529 741C529 741 595 755 627 755C659 755 689 745.528 689 745.528C689 745.528 688 814 618 814C548 814 529 741 529 741Z" stroke="black" stroke-width="16" stroke-linecap="round" stroke-linejoin="round"/></g>    </g><g id="notion-avatar-eyes">      <!--?xml version="1.0" encoding="UTF-8"?-->    <title>Eyes/ 9</title>    <g id="Eyes/-9" stroke="none" stroke-width="1" fill="none" fill-rule="evenodd">        <path d="M570,507 C575.854822,507 581.122051,511.025253 584.779642,517.440484 L578,531 L589.369946,531.000208 C589.781247,533.557105 590,536.237678 590,539 C590,556.673112 581.045695,571 570,571 C558.954305,571 550,556.673112 550,539 C550,521.326888 558.954305,507 570,507 Z M708,507 C713.854822,507 719.122051,511.025253 722.779642,517.440484 L716,531 L727.369946,531.000208 C727.781247,533.557105 728,536.237678 728,539 C728,556.673112 719.045695,571 708,571 C696.954305,571 688,556.673112 688,539 C688,521.326888 696.954305,507 708,507 Z" id="Combined-Shape" fill="#000000"/>    </g>    </g><g id="notion-avatar-eyebrows">      <!--?xml version="1.0" encoding="UTF-8"?-->    <title>Eyebrows/ 8</title>    <g id="Eyebrows/-8" stroke="none" stroke-width="1" fill="none" fill-rule="evenodd" stroke-linecap="round" stroke-linejoin="round">        <g id="Group" transform="translate(530.000000, 490.000000)" stroke="#000000" stroke-width="16">            <path d="M64,10 C59.1947065,3.33333333 51.1947065,0 40,0 C28.8052935,0 15.4719602,3.33333333 0,10" id="Path"/>            <path d="M218,10 C213.194706,3.33333333 205.194706,0 194,0 C182.805294,0 169.47196,3.33333333 154,10" id="Path" transform="translate(186.000000, 5.000000) scale(-1, 1) translate(-186.000000, -5.000000) "/>        </g>    </g>    </g><g id="notion-avatar-glasses">      <!--?xml version="1.0" encoding="UTF-8"?-->    <title>Glasses/ 0</title>    <g id="Glasses/-0" stroke="none" stroke-width="1" fill="none" fill-rule="evenodd"/>    </g><g id="notion-avatar-hair">      <g id="Hairstyle/ 56"><path id="Path" fill-rule="evenodd" clip-rule="evenodd" d="M459 252C314 281 243.651 409.553 213 483C182.349 556.447 182 710 182 836C182 962 62 1080 62 1080H352C352 1080 451.049 866.694 420 836C388.951 805.306 312 719 312 719C312 719 232 705 232 639C232 573 286 566 311 566C336 566 380 447 487 399C594 351 687.325 439.865 708 461C753 507 764 568 764 639C764 675.67 758.252 722.763 741 804C736.416 825.585 643 1080 643 1080H781C781 1080 777.56 1048.95 781 1038C793.31 998.814 813.378 973.044 819 945C833.588 872.231 807.322 755.18 807 738C805.177 640.781 832.688 633.08 819 540C813.343 501.531 808.535 437.476 758 374C707.465 310.523 664 316 664 316C664 316 604 223 459 252Z" fill="black" stroke="black" stroke-width="12" stroke-linecap="round" stroke-linejoin="round"/></g>    </g><g id="notion-avatar-accessories">      <!--?xml version="1.0" encoding="UTF-8"?-->    <title>Accessories/ 0</title>    <g id="Accessories/-0" stroke="none" stroke-width="1" fill="none" fill-rule="evenodd"/>    </g><g id="notion-avatar-details">      <!--?xml version="1.0" encoding="UTF-8"?-->    <title>Details/ 3</title>    <g id="Details/-3" stroke="none" stroke-width="1" fill="none" fill-rule="evenodd" stroke-linecap="round" stroke-linejoin="round">        <path d="M491.752948,639.020916 L486.914511,658.42683 M511.752948,639.020916 L506.914511,658.42683 M531.752948,639.020916 L526.914511,658.42683 M789.247052,639.020916 L794.085489,658.42683 M769.247052,639.020916 L774.085489,658.42683 M749.247052,639.020916 L754.085489,658.42683" id="Combined-Shape" stroke="#000000" stroke-width="12"/>    </g>    </g><g id="notion-avatar-beard">      <!--?xml version="1.0" encoding="UTF-8"?-->    <title>Beard/ 0</title>    <g id="Beard/-0" stroke="none" stroke-width="1" fill="none" fill-rule="evenodd"/>    </g>      </g>      </svg>